{
  "source": "C:\\Users\\Peter\\Desktop\\stuff\\MIUN\\quantitative_research\\video_compression\\videos\\BVI-HD\\BVI-HD_CDVL_videos\\ORIG\\PlasmaSlowRandom_1920x1080_60fps.mp4",
  "output": "C:\\Users\\Peter\\Desktop\\stuff\\MIUN\\quantitative_research\\video_compression\\compressed_videos\\BVI-HD\\hevc\\1\\PlasmaSlowRandom_1920x1080_60fps_hevc.mp4",
  "codec": "hevc",
  "ok": "Input #0, mov,mp4,m4a,3gp,3g2,mj2, from 'C:\\Users\\Peter\\Desktop\\stuff\\MIUN\\quantitative_research\\video_compression\\videos\\BVI-HD\\BVI-HD_CDVL_videos\\ORIG\\PlasmaSlowRandom_1920x1080_60fps.mp4':\n  Metadata:\n    major_brand     : isom\n    minor_version   : 512\n    compatible_brands: isomiso2avc1mp41\n    encoder         : Lavf54.28.101\n  Duration: 00:00:05.00, start: 0.000000, bitrate: 23030 kb/s\n  Stream #0:0[0x1](und): Video: h264 (High 4:4:4 Predictive) (avc1 / 0x31637661), yuv420p(progressive), 1920x1080, 23026 kb/s, 60 fps, 60 tbr, 60 tbn (default)\n    Metadata:\n      handler_name    : VideoHandler\n      vendor_id       : [0][0][0][0]\n[out#0/mp4 @ 00000163e7661000] Codec AVOption b:a (set bitrate (in bits/s)) has not been used for any stream. The most likely reason is either wrong type (e.g. a video option with no video streams) or that it is a private option of some decoder which was not actually used for any stream.\nStream mapping:\n  Stream #0:0 -> #0:0 (h264 (native) -> hevc (libx265))\nPress [q] to stop, [?] for help\n[libx265 @ 00000163e7c1d540] Unknown option: \"aq-mode.\nx265 [info]: HEVC encoder version 4.1+190-8f11c33ac\nx265 [info]: build info [Windows][GCC 15.1.0][64 bit] 10bit\nx265 [info]: using cpu capabilities: MMX2 SSE2Fast LZCNT SSSE3 SSE4.2 AVX FMA3 BMI2 AVX2\nx265 [info]: Main 10 profile, Level-4.1 (Main tier)\nx265 [info]: Thread pool created using 12 threads\nx265 [info]: Slices                              : 1\nx265 [info]: frame threads / pool features       : 3 / wpp(17 rows)\nx265 [info]: Coding QT: max CU size, min CU size : 64 / 8\nx265 [info]: Residual QT: max TU size, max depth : 32 / 1 inter / 1 intra\nx265 [info]: ME / range / subpel / merge         : star / 57 / 3 / 3\nx265 [info]: Keyframe min / max / scenecut / bias  : 25 / 250 / 40 / 5.00 \nx265 [info]: Lookahead / bframes / badapt        : 25 / 4 / 2\nx265 [info]: b-pyramid / weightp / weightb       : 1 / 1 / 0\nx265 [info]: References / ref-limit  cu / depth  : 4 / on / on\nx265 [info]: AQ: mode / str / qg-size / cu-tree  : 2 / 1.0 / 32 / 1\nx265 [info]: Rate Control / qCompress            : ABR-1000 kbps / 0.60\nx265 [info]: VBV/HRD buffer / max-rate / init    : 1000 / 1000 / 0.750\nx265 [info]: tools: rect limit-modes rd=4 psy-rd=2.00 rdoq=2 psy-rdoq=1.00\nx265 [info]: tools: rskip mode=1 signhide tmvp strong-intra-smoothing lslices=4\nx265 [info]: tools: deblock sao dhdr10-info\nOutput #0, mp4, to 'C:\\Users\\Peter\\Desktop\\stuff\\MIUN\\quantitative_research\\video_compression\\compressed_videos\\BVI-HD\\hevc\\1\\PlasmaSlowRandom_1920x1080_60fps_hevc.mp4':\n  Metadata:\n    major_brand     : isom\n    minor_version   : 512\n    compatible_brands: isomiso2avc1mp41\n    encoder         : Lavf62.3.100\n  Stream #0:0(und): Video: hevc (hev1 / 0x31766568), yuv420p10le(tv, progressive), 1920x1080, q=2-31, 1000 kb/s, 60 fps, 15360 tbn (default)\n    Metadata:\n      encoder         : Lavc62.11.100 libx265\n      handler_name    : VideoHandler\n      vendor_id       : [0][0][0][0]\n    Side data:\n      cpb: bitrate max/min/avg: 1000000/0/1000000 buffer size: 1000000 vbv_delay: N/A\nframe=    0 fps=0.0 q=0.0 size=       0KiB time=N/A bitrate=N/A speed=N/A elapsed=0:00:00.50    \nframe=    0 fps=0.0 q=0.0 size=       0KiB time=N/A bitrate=N/A speed=N/A elapsed=0:00:01.02    \nframe=    0 fps=0.0 q=0.0 size=       0KiB time=N/A bitrate=N/A speed=N/A elapsed=0:00:01.54    \nframe=    0 fps=0.0 q=0.0 size=       0KiB time=N/A bitrate=N/A speed=N/A elapsed=0:00:02.06    \nframe=    1 fps=0.4 q=47.6 size=       0KiB time=-00:00:00.01 bitrate=N/A speed=N/A elapsed=0:00:02.56    \nframe=    3 fps=1.0 q=45.1 size=       0KiB time=00:00:00.01 bitrate=  21.1kbits/s speed=0.0054x elapsed=0:00:03.08    \nframe=    6 fps=1.7 q=46.0 size=       0KiB time=00:00:00.06 bitrate=   5.3kbits/s speed=0.0185x elapsed=0:00:03.60    \nframe=    7 fps=1.7 q=43.2 size=       0KiB time=00:00:00.08 bitrate=   4.2kbits/s speed=0.0202x elapsed=0:00:04.13    \nframe=    9 fps=1.9 q=42.7 size=       0KiB time=00:00:00.11 bitrate=   3.0kbits/s speed=0.0251x elapsed=0:00:04.64    \nframe=   10 fps=1.9 q=39.7 size=       0KiB time=00:00:00.13 bitrate=   2.6kbits/s speed=0.0258x elapsed=0:00:05.16    \nframe=   10 fps=1.8 q=39.7 size=       0KiB time=00:00:00.13 bitrate=   2.6kbits/s speed=0.0234x elapsed=0:00:05.68    \nframe=   11 fps=1.8 q=38.8 size=       0KiB time=00:00:00.15 bitrate=   2.3kbits/s speed=0.0242x elapsed=0:00:06.19    \nframe=   13 fps=1.9 q=34.9 size=       0KiB time=00:00:00.18 bitrate=   1.9kbits/s speed=0.0273x elapsed=0:00:06.71    \nframe=   14 fps=1.9 q=38.3 size=       0KiB time=00:00:00.20 bitrate=   1.8kbits/s speed=0.0276x elapsed=0:00:07.23    \nframe=   16 fps=2.1 q=37.6 size=       0KiB time=00:00:00.23 bitrate=   1.5kbits/s speed=0.0301x elapsed=0:00:07.76    \nframe=   17 fps=2.0 q=35.6 size=       0KiB time=00:00:00.25 bitrate=   1.4kbits/s speed=0.0301x elapsed=0:00:08.29    \nframe=   18 fps=2.0 q=37.1 size=       0KiB time=00:00:00.26 bitrate=   1.3kbits/s speed=0.0303x elapsed=0:00:08.80    \nframe=   19 fps=2.0 q=37.6 size=       0KiB time=00:00:00.28 bitrate=   1.2kbits/s speed=0.0304x elapsed=0:00:09.32    \nframe=   20 fps=2.0 q=37.5 size=       0KiB time=00:00:00.30 bitrate=   1.2kbits/s speed=0.0305x elapsed=0:00:09.84    \nframe=   23 fps=2.2 q=37.3 size=       0KiB time=00:00:00.35 bitrate=   1.0kbits/s speed=0.0338x elapsed=0:00:10.34    \nframe=   24 fps=2.2 q=36.4 size=       0KiB time=00:00:00.36 bitrate=   1.0kbits/s speed=0.0337x elapsed=0:00:10.87    \nframe=   26 fps=2.3 q=34.3 size=       0KiB time=00:00:00.40 bitrate=   0.9kbits/s speed=0.0351x elapsed=0:00:11.39    \nframe=   27 fps=2.3 q=36.5 size=       0KiB time=00:00:00.41 bitrate=   0.8kbits/s speed=0.035x elapsed=0:00:11.89    \nframe=   29 fps=2.3 q=35.3 size=       0KiB time=00:00:00.45 bitrate=   0.8kbits/s speed=0.0362x elapsed=0:00:12.42    \nframe=   31 fps=2.4 q=36.4 size=       0KiB time=00:00:00.48 bitrate=   0.7kbits/s speed=0.0374x elapsed=0:00:12.93    \nframe=   32 fps=2.4 q=35.4 size=       0KiB time=00:00:00.50 bitrate=   0.7kbits/s speed=0.0371x elapsed=0:00:13.45    \nframe=   32 fps=2.3 q=35.4 size=       0KiB time=00:00:00.50 bitrate=   0.7kbits/s speed=0.0358x elapsed=0:00:13.97    \nframe=   34 fps=2.3 q=35.3 size=       0KiB time=00:00:00.53 bitrate=   0.7kbits/s speed=0.0367x elapsed=0:00:14.51    \nframe=   35 fps=2.3 q=36.4 size=       0KiB time=00:00:00.55 bitrate=   0.6kbits/s speed=0.0366x elapsed=0:00:15.03    \nframe=   37 fps=2.4 q=34.1 size=       0KiB time=00:00:00.58 bitrate=   0.6kbits/s speed=0.0375x elapsed=0:00:15.54    \nframe=   38 fps=2.4 q=36.5 size=       0KiB time=00:00:00.60 bitrate=   0.6kbits/s speed=0.0374x elapsed=0:00:16.05    \nframe=   40 fps=2.4 q=35.4 size=       0KiB time=00:00:00.61 bitrate=   0.6kbits/s speed=0.0372x elapsed=0:00:16.57    \nframe=   41 fps=2.4 q=36.6 size=       0KiB time=00:00:00.65 bitrate=   0.5kbits/s speed=0.0379x elapsed=0:00:17.13    \nframe=   43 fps=2.4 q=36.6 size=       0KiB time=00:00:00.68 bitrate=   0.5kbits/s speed=0.0387x elapsed=0:00:17.64    \nframe=   45 fps=2.5 q=35.1 size=       0KiB time=00:00:00.71 bitrate=   0.5kbits/s speed=0.0394x elapsed=0:00:18.17    \nframe=   45 fps=2.4 q=35.1 size=       0KiB time=00:00:00.71 bitrate=   0.5kbits/s speed=0.0382x elapsed=0:00:18.74    \nframe=   45 fps=2.3 q=35.1 size=       0KiB time=00:00:00.71 bitrate=   0.5kbits/s speed=0.0372x elapsed=0:00:19.27    \nframe=   48 fps=2.4 q=36.3 size=       0KiB time=00:00:00.76 bitrate=   0.5kbits/s speed=0.0387x elapsed=0:00:19.82    \nframe=   48 fps=2.4 q=36.3 size=       0KiB time=00:00:00.76 bitrate=   0.5kbits/s speed=0.0376x elapsed=0:00:20.36    \nframe=   49 fps=2.3 q=37.4 size=       0KiB time=00:00:00.78 bitrate=   0.4kbits/s speed=0.0375x elapsed=0:00:20.88    \nframe=   50 fps=2.3 q=37.5 size=       0KiB time=00:00:00.80 bitrate=   0.4kbits/s speed=0.0374x elapsed=0:00:21.39    \nframe=   51 fps=2.3 q=37.5 size=       0KiB time=00:00:00.81 bitrate=   0.4kbits/s speed=0.0373x elapsed=0:00:21.92    \nframe=   52 fps=2.3 q=35.3 size=       0KiB time=00:00:00.83 bitrate=   0.4kbits/s speed=0.0371x elapsed=0:00:22.44    \nframe=   54 fps=2.4 q=37.6 size=       0KiB time=00:00:00.86 bitrate=   0.4kbits/s speed=0.0377x elapsed=0:00:22.95    \nframe=   54 fps=2.3 q=37.6 size=       0KiB time=00:00:00.86 bitrate=   0.4kbits/s speed=0.0369x elapsed=0:00:23.47    \nframe=   54 fps=2.2 q=37.6 size=       0KiB time=00:00:00.86 bitrate=   0.4kbits/s speed=0.0361x elapsed=0:00:24.00    \nframe=   56 fps=2.3 q=37.5 size=       0KiB time=00:00:00.90 bitrate=   0.4kbits/s speed=0.0367x elapsed=0:00:24.53    \nframe=   58 fps=2.3 q=36.6 size=       0KiB time=00:00:00.93 bitrate=   0.4kbits/s speed=0.0372x elapsed=0:00:25.08    \nframe=   59 fps=2.3 q=37.7 size=       0KiB time=00:00:00.95 bitrate=   0.4kbits/s speed=0.0371x elapsed=0:00:25.63    \nframe=   59 fps=2.3 q=37.7 size=       0KiB time=00:00:00.95 bitrate=   0.4kbits/s speed=0.0363x elapsed=0:00:26.18    \nframe=   61 fps=2.3 q=37.7 size=       0KiB time=00:00:00.98 bitrate=   0.4kbits/s speed=0.0368x elapsed=0:00:26.69    \nframe=   62 fps=2.3 q=34.5 size=       0KiB time=00:00:01.00 bitrate=   0.4kbits/s speed=0.0368x elapsed=0:00:27.20    \nframe=   62 fps=2.2 q=34.5 size=       0KiB time=00:00:01.00 bitrate=   0.4kbits/s speed=0.0361x elapsed=0:00:27.73    \nframe=   63 fps=2.2 q=36.4 size=       0KiB time=00:00:01.01 bitrate=   0.3kbits/s speed=0.036x elapsed=0:00:28.26    \nframe=   63 fps=2.2 q=36.4 size=       0KiB time=00:00:01.01 bitrate=   0.3kbits/s speed=0.0353x elapsed=0:00:28.77    \nframe=   64 fps=2.2 q=37.7 size=       0KiB time=00:00:01.03 bitrate=   0.3kbits/s speed=0.0353x elapsed=0:00:29.28    \nframe=   65 fps=2.2 q=35.5 size=       0KiB time=00:00:01.05 bitrate=   0.3kbits/s speed=0.0352x elapsed=0:00:29.80    \nframe=   67 fps=2.2 q=37.7 size=       0KiB time=00:00:01.08 bitrate=   0.3kbits/s speed=0.0357x elapsed=0:00:30.32    \nframe=   67 fps=2.2 q=37.7 size=       0KiB time=00:00:01.08 bitrate=   0.3kbits/s speed=0.0351x elapsed=0:00:30.85    \nframe=   68 fps=2.2 q=37.7 size=       0KiB time=00:00:01.10 bitrate=   0.3kbits/s speed=0.0351x elapsed=0:00:31.36    \nframe=   68 fps=2.1 q=37.7 size=       0KiB time=00:00:01.10 bitrate=   0.3kbits/s speed=0.0345x elapsed=0:00:31.89    \nframe=   69 fps=2.1 q=37.7 size=       0KiB time=00:00:01.11 bitrate=   0.3kbits/s speed=0.0344x elapsed=0:00:32.41    \nframe=   70 fps=2.1 q=35.4 size=       0KiB time=00:00:01.13 bitrate=   0.3kbits/s speed=0.0344x elapsed=0:00:32.93    \nframe=   70 fps=2.1 q=35.4 size=       0KiB time=00:00:01.13 bitrate=   0.3kbits/s speed=0.0339x elapsed=0:00:33.46    \nframe=   72 fps=2.1 q=37.7 size=       0KiB time=00:00:01.16 bitrate=   0.3kbits/s speed=0.0343x elapsed=0:00:33.98    \nframe=   73 fps=2.1 q=37.8 size=       0KiB time=00:00:01.18 bitrate=   0.3kbits/s speed=0.0343x elapsed=0:00:34.49    \nframe=   74 fps=2.1 q=37.7 size=       0KiB time=00:00:01.20 bitrate=   0.3kbits/s speed=0.0343x elapsed=0:00:35.01    \nframe=   75 fps=2.1 q=35.2 size=       0KiB time=00:00:01.21 bitrate=   0.3kbits/s speed=0.0342x elapsed=0:00:35.54    \nframe=   76 fps=2.1 q=36.4 size=       0KiB time=00:00:01.23 bitrate=   0.3kbits/s speed=0.0342x elapsed=0:00:36.07    \nframe=   78 fps=2.1 q=37.7 size=       0KiB time=00:00:01.26 bitrate=   0.3kbits/s speed=0.0346x elapsed=0:00:36.58    \nframe=   79 fps=2.1 q=37.6 size=       0KiB time=00:00:01.28 bitrate=   0.3kbits/s speed=0.0346x elapsed=0:00:37.11    \nframe=   80 fps=2.1 q=35.2 size=       0KiB time=00:00:01.30 bitrate=   0.3kbits/s speed=0.0345x elapsed=0:00:37.66    \nframe=   81 fps=2.1 q=36.5 size=       0KiB time=00:00:01.31 bitrate=   0.3kbits/s speed=0.0345x elapsed=0:00:38.17    \nframe=   82 fps=2.1 q=37.7 size=       0KiB time=00:00:01.33 bitrate=   0.3kbits/s speed=0.0344x elapsed=0:00:38.70    \nframe=   84 fps=2.1 q=37.5 size=       0KiB time=00:00:01.36 bitrate=   0.3kbits/s speed=0.0348x elapsed=0:00:39.22    \nframe=   86 fps=2.2 q=38.5 size=       0KiB time=00:00:01.40 bitrate=   0.3kbits/s speed=0.0352x elapsed=0:00:39.74    \nframe=   87 fps=2.2 q=38.6 size=       0KiB time=00:00:01.41 bitrate=   0.2kbits/s speed=0.0352x elapsed=0:00:40.26    \nframe=   88 fps=2.2 q=35.3 size=       0KiB time=00:00:01.43 bitrate=   0.2kbits/s speed=0.0351x elapsed=0:00:40.78    \nframe=   89 fps=2.2 q=37.3 size=       0KiB time=00:00:01.45 bitrate=   0.2kbits/s speed=0.0351x elapsed=0:00:41.30    \nframe=   90 fps=2.2 q=38.5 size=       0KiB time=00:00:01.46 bitrate=   0.2kbits/s speed=0.0351x elapsed=0:00:41.82    \nframe=   90 fps=2.1 q=38.5 size=       0KiB time=00:00:01.46 bitrate=   0.2kbits/s speed=0.0346x elapsed=0:00:42.34    \nframe=   91 fps=2.1 q=35.9 size=       0KiB time=00:00:01.48 bitrate=   0.2kbits/s speed=0.0346x elapsed=0:00:42.86    \nframe=   93 fps=2.1 q=38.5 size=       0KiB time=00:00:01.51 bitrate=   0.2kbits/s speed=0.035x elapsed=0:00:43.38    \nframe=   94 fps=2.1 q=38.4 size=       0KiB time=00:00:01.53 bitrate=   0.2kbits/s speed=0.0349x elapsed=0:00:43.89    \nframe=   95 fps=2.1 q=38.5 size=       0KiB time=00:00:01.55 bitrate=   0.2kbits/s speed=0.0349x elapsed=0:00:44.41    \nframe=   96 fps=2.1 q=35.6 size=       0KiB time=00:00:01.56 bitrate=   0.2kbits/s speed=0.0349x elapsed=0:00:44.94    \nframe=   98 fps=2.2 q=38.4 size=       0KiB time=00:00:01.60 bitrate=   0.2kbits/s speed=0.0352x elapsed=0:00:45.46    \nframe=   99 fps=2.2 q=38.4 size=       0KiB time=00:00:01.61 bitrate=   0.2kbits/s speed=0.0352x elapsed=0:00:45.99    \nframe=  100 fps=2.1 q=38.4 size=       0KiB time=00:00:01.63 bitrate=   0.2kbits/s speed=0.0351x elapsed=0:00:46.51    \nframe=  102 fps=2.2 q=37.1 size=       0KiB time=00:00:01.66 bitrate=   0.2kbits/s speed=0.0354x elapsed=0:00:47.04    \nframe=  103 fps=2.2 q=38.3 size=       0KiB time=00:00:01.68 bitrate=   0.2kbits/s speed=0.0354x elapsed=0:00:47.55    \nframe=  104 fps=2.2 q=38.2 size=       0KiB time=00:00:01.70 bitrate=   0.2kbits/s speed=0.0354x elapsed=0:00:48.08    \nframe=  106 fps=2.2 q=35.8 size=       0KiB time=00:00:01.73 bitrate=   0.2kbits/s speed=0.0357x elapsed=0:00:48.61    \nframe=  107 fps=2.2 q=36.9 size=       0KiB time=00:00:01.75 bitrate=   0.2kbits/s speed=0.0356x elapsed=0:00:49.12    \nframe=  107 fps=2.2 q=36.9 size=       0KiB time=00:00:01.75 bitrate=   0.2kbits/s speed=0.0353x elapsed=0:00:49.64    \nframe=  108 fps=2.2 q=38.3 size=       0KiB time=00:00:01.76 bitrate=   0.2kbits/s speed=0.0352x elapsed=0:00:50.14    \nframe=  110 fps=2.2 q=36.7 size=       0KiB time=00:00:01.80 bitrate=   0.2kbits/s speed=0.0355x elapsed=0:00:50.69    \nframe=  111 fps=2.2 q=38.3 size=       0KiB time=00:00:01.81 bitrate=   0.2kbits/s speed=0.0355x elapsed=0:00:51.23    \nframe=  112 fps=2.2 q=38.3 size=       0KiB time=00:00:01.83 bitrate=   0.2kbits/s speed=0.0354x elapsed=0:00:51.75    \nframe=  112 fps=2.1 q=38.3 size=       0KiB time=00:00:01.83 bitrate=   0.2kbits/s speed=0.0351x elapsed=0:00:52.28    \nframe=  113 fps=2.1 q=38.4 size=       0KiB time=00:00:01.85 bitrate=   0.2kbits/s speed=0.035x elapsed=0:00:52.82    \nframe=  114 fps=2.1 q=36.1 size=       0KiB time=00:00:01.86 bitrate=   0.2kbits/s speed=0.035x elapsed=0:00:53.34    \nframe=  115 fps=2.1 q=37.0 size=       0KiB time=00:00:01.88 bitrate=   0.2kbits/s speed=0.035x elapsed=0:00:53.87    \nframe=  116 fps=2.1 q=38.3 size=       0KiB time=00:00:01.90 bitrate=   0.2kbits/s speed=0.0349x elapsed=0:00:54.38    \nframe=  117 fps=2.1 q=35.7 size=       0KiB time=00:00:01.91 bitrate=   0.2kbits/s speed=0.0349x elapsed=0:00:54.89    \nframe=  119 fps=2.1 q=38.5 size=       0KiB time=00:00:01.95 bitrate=   0.2kbits/s speed=0.0352x elapsed=0:00:55.42    \nframe=  122 fps=2.2 q=38.4 size=       0KiB time=00:00:02.00 bitrate=   0.2kbits/s speed=0.0358x elapsed=0:00:55.92    \nframe=  122 fps=2.2 q=38.4 size=       0KiB time=00:00:02.00 bitrate=   0.2kbits/s speed=0.0354x elapsed=0:00:56.44    \nframe=  123 fps=2.2 q=35.7 size=       0KiB time=00:00:02.01 bitrate=   0.2kbits/s speed=0.0354x elapsed=0:00:56.97    \nframe=  123 fps=2.1 q=35.7 size=       0KiB time=00:00:02.01 bitrate=   0.2kbits/s speed=0.0351x elapsed=0:00:57.49    \nframe=  124 fps=2.1 q=37.1 size=       0KiB time=00:00:02.03 bitrate=   0.2kbits/s speed=0.035x elapsed=0:00:58.01    \nframe=  126 fps=2.2 q=38.4 size=       0KiB time=00:00:02.06 bitrate=   0.2kbits/s speed=0.0353x elapsed=0:00:58.53    \nframe=  128 fps=2.2 q=36.9 size=     256KiB time=00:00:02.10 bitrate= 998.8kbits/s speed=0.0356x elapsed=0:00:59.04    \nframe=  130 fps=2.2 q=38.4 size=     256KiB time=00:00:02.13 bitrate= 983.2kbits/s speed=0.0358x elapsed=0:00:59.56    \nframe=  132 fps=2.2 q=35.0 size=     256KiB time=00:00:02.16 bitrate= 968.1kbits/s speed=0.0361x elapsed=0:01:00.06    \nframe=  133 fps=2.2 q=36.8 size=     256KiB time=00:00:02.18 bitrate= 960.7kbits/s speed=0.036x elapsed=0:01:00.59    \nframe=  136 fps=2.2 q=38.4 size=     256KiB time=00:00:02.23 bitrate= 939.2kbits/s speed=0.0365x elapsed=0:01:01.10    \nframe=  136 fps=2.2 q=38.4 size=     256KiB time=00:00:02.23 bitrate= 939.2kbits/s speed=0.0362x elapsed=0:01:01.62    \nframe=  137 fps=2.2 q=35.4 size=     256KiB time=00:00:02.25 bitrate= 932.2kbits/s speed=0.0362x elapsed=0:01:02.13    \nframe=  138 fps=2.2 q=37.0 size=     256KiB time=00:00:02.26 bitrate= 925.4kbits/s speed=0.0362x elapsed=0:01:02.65    \nframe=  141 fps=2.2 q=38.3 size=     256KiB time=00:00:02.31 bitrate= 905.4kbits/s speed=0.0367x elapsed=0:01:03.18    \nframe=  141 fps=2.2 q=38.3 size=     256KiB time=00:00:02.31 bitrate= 905.4kbits/s speed=0.0364x elapsed=0:01:03.69    \nframe=  142 fps=2.2 q=35.3 size=     256KiB time=00:00:02.33 bitrate= 898.9kbits/s speed=0.0363x elapsed=0:01:04.21    \nframe=  145 fps=2.2 q=38.2 size=     256KiB time=00:00:02.38 bitrate= 880.1kbits/s speed=0.0368x elapsed=0:01:04.73    \nframe=  146 fps=2.2 q=34.8 size=     256KiB time=00:00:02.40 bitrate= 874.0kbits/s speed=0.0368x elapsed=0:01:05.25    \nframe=  148 fps=2.2 q=38.3 size=     256KiB time=00:00:02.43 bitrate= 862.0kbits/s speed=0.037x elapsed=0:01:05.78    \nframe=  150 fps=2.3 q=38.3 size=     256KiB time=00:00:02.46 bitrate= 850.3kbits/s speed=0.0372x elapsed=0:01:06.30    \nframe=  151 fps=2.3 q=35.4 size=     256KiB time=00:00:02.48 bitrate= 844.6kbits/s speed=0.0372x elapsed=0:01:06.84    \nframe=  152 fps=2.3 q=36.8 size=     256KiB time=00:00:02.50 bitrate= 839.0kbits/s speed=0.0371x elapsed=0:01:07.38    \nframe=  154 fps=2.3 q=38.2 size=     256KiB time=00:00:02.53 bitrate= 828.0kbits/s speed=0.0373x elapsed=0:01:07.90    \nframe=  155 fps=2.3 q=35.3 size=     256KiB time=00:00:02.55 bitrate= 822.6kbits/s speed=0.0373x elapsed=0:01:08.43    \nframe=  156 fps=2.3 q=37.1 size=     256KiB time=00:00:02.56 bitrate= 817.2kbits/s speed=0.0372x elapsed=0:01:08.94    \nframe=  158 fps=2.3 q=35.6 size=     256KiB time=00:00:02.60 bitrate= 806.7kbits/s speed=0.0374x elapsed=0:01:09.46    \nframe=  158 fps=2.3 q=35.6 size=     256KiB time=00:00:02.60 bitrate= 806.7kbits/s speed=0.0372x elapsed=0:01:09.97    \nframe=  161 fps=2.3 q=38.4 size=     256KiB time=00:00:02.65 bitrate= 791.5kbits/s speed=0.0376x elapsed=0:01:10.49    \nframe=  162 fps=2.3 q=35.8 size=     256KiB time=00:00:02.66 bitrate= 786.6kbits/s speed=0.0375x elapsed=0:01:11.01    \nframe=  164 fps=2.3 q=38.3 size=     256KiB time=00:00:02.70 bitrate= 776.9kbits/s speed=0.0377x elapsed=0:01:11.53    \nframe=  165 fps=2.3 q=38.1 size=     256KiB time=00:00:02.71 bitrate= 772.1kbits/s speed=0.0377x elapsed=0:01:12.05    \nframe=  166 fps=2.3 q=35.8 size=     256KiB time=00:00:02.73 bitrate= 767.4kbits/s speed=0.0377x elapsed=0:01:12.57    \nframe=  168 fps=2.3 q=35.3 size=     256KiB time=00:00:02.76 bitrate= 758.1kbits/s speed=0.0379x elapsed=0:01:13.09    \nframe=  171 fps=2.3 q=38.3 size=     256KiB time=00:00:02.81 bitrate= 744.7kbits/s speed=0.0383x elapsed=0:01:13.61    \nframe=  172 fps=2.3 q=38.2 size=     256KiB time=00:00:02.83 bitrate= 740.3kbits/s speed=0.0382x elapsed=0:01:14.14    \nframe=  172 fps=2.3 q=38.2 size=     256KiB time=00:00:02.83 bitrate= 740.3kbits/s speed=0.0379x elapsed=0:01:14.67    \nframe=  173 fps=2.3 q=35.7 size=     256KiB time=00:00:02.85 bitrate= 736.0kbits/s speed=0.0379x elapsed=0:01:15.21    \nframe=  175 fps=2.3 q=38.3 size=     256KiB time=00:00:02.88 bitrate= 727.5kbits/s speed=0.0381x elapsed=0:01:15.72    \nframe=  175 fps=2.3 q=38.3 size=     256KiB time=00:00:02.88 bitrate= 727.5kbits/s speed=0.0378x elapsed=0:01:16.25    \nframe=  176 fps=2.3 q=38.1 size=     256KiB time=00:00:02.90 bitrate= 723.3kbits/s speed=0.0378x elapsed=0:01:16.79    \nframe=  178 fps=2.3 q=36.8 size=     256KiB time=00:00:02.93 bitrate= 715.1kbits/s speed=0.0379x elapsed=0:01:17.31    \nframe=  180 fps=2.3 q=38.2 size=     256KiB time=00:00:02.96 bitrate= 707.0kbits/s speed=0.0381x elapsed=0:01:17.85    \nframe=  182 fps=2.3 q=37.1 size=     256KiB time=00:00:03.00 bitrate= 699.2kbits/s speed=0.0383x elapsed=0:01:18.37    \nframe=  185 fps=2.3 q=38.3 size=     256KiB time=00:00:03.05 bitrate= 687.7kbits/s speed=0.0387x elapsed=0:01:18.88    \nframe=  187 fps=2.4 q=37.3 size=     256KiB time=00:00:03.08 bitrate= 680.3kbits/s speed=0.0388x elapsed=0:01:19.40    \nframe=  189 fps=2.4 q=38.3 size=     256KiB time=00:00:03.11 bitrate= 673.0kbits/s speed=0.039x elapsed=0:01:19.92    \nframe=  190 fps=2.4 q=38.4 size=     256KiB time=00:00:03.13 bitrate= 669.4kbits/s speed=0.039x elapsed=0:01:20.43    \nframe=  193 fps=2.4 q=38.3 size=     256KiB time=00:00:03.18 bitrate= 658.9kbits/s speed=0.0393x elapsed=0:01:20.95    \nframe=  195 fps=2.4 q=37.2 size=     256KiB time=00:00:03.21 bitrate= 652.1kbits/s speed=0.0395x elapsed=0:01:21.47    \nframe=  196 fps=2.4 q=38.4 size=     256KiB time=00:00:03.23 bitrate= 648.7kbits/s speed=0.0394x elapsed=0:01:21.97    \nframe=  199 fps=2.4 q=37.3 size=     256KiB time=00:00:03.28 bitrate= 638.8kbits/s speed=0.0398x elapsed=0:01:22.50    \nframe=  199 fps=2.4 q=37.3 size=     256KiB time=00:00:03.28 bitrate= 638.8kbits/s speed=0.0396x elapsed=0:01:23.00    \nframe=  202 fps=2.4 q=35.8 size=     256KiB time=00:00:03.33 bitrate= 629.3kbits/s speed=0.0399x elapsed=0:01:23.52    \nframe=  204 fps=2.4 q=38.6 size=     256KiB time=00:00:03.36 bitrate= 623.0kbits/s speed=0.0401x elapsed=0:01:24.04    \nframe=  206 fps=2.4 q=35.9 size=     256KiB time=00:00:03.40 bitrate= 616.9kbits/s speed=0.0402x elapsed=0:01:24.56    \nframe=  208 fps=2.4 q=38.6 size=     256KiB time=00:00:03.43 bitrate= 610.9kbits/s speed=0.0404x elapsed=0:01:25.08    \nframe=  209 fps=2.4 q=38.5 size=     256KiB time=00:00:03.45 bitrate= 608.0kbits/s speed=0.0403x elapsed=0:01:25.60    \nframe=  211 fps=2.5 q=37.2 size=     256KiB time=00:00:03.48 bitrate= 602.2kbits/s speed=0.0404x elapsed=0:01:26.11    \nframe=  214 fps=2.5 q=35.6 size=     256KiB time=00:00:03.53 bitrate= 593.6kbits/s speed=0.0408x elapsed=0:01:26.63    \nframe=  215 fps=2.5 q=37.5 size=     256KiB time=00:00:03.55 bitrate= 590.8kbits/s speed=0.0407x elapsed=0:01:27.15    \nframe=  218 fps=2.5 q=38.4 size=     256KiB time=00:00:03.60 bitrate= 582.6kbits/s speed=0.0411x elapsed=0:01:27.66    \nframe=  219 fps=2.5 q=35.5 size=     256KiB time=00:00:03.61 bitrate= 580.0kbits/s speed=0.041x elapsed=0:01:28.18    \nframe=  223 fps=2.5 q=38.3 size=     256KiB time=00:00:03.68 bitrate= 569.5kbits/s speed=0.0415x elapsed=0:01:28.70    \nframe=  224 fps=2.5 q=35.7 size=     256KiB time=00:00:03.70 bitrate= 566.9kbits/s speed=0.0415x elapsed=0:01:29.21    \nframe=  227 fps=2.5 q=38.3 size=     256KiB time=00:00:03.75 bitrate= 559.3kbits/s speed=0.0418x elapsed=0:01:29.74    \nframe=  228 fps=2.5 q=35.9 size=     256KiB time=00:00:03.76 bitrate= 556.9kbits/s speed=0.0417x elapsed=0:01:30.25    \nframe=  228 fps=2.5 q=35.9 size=     256KiB time=00:00:03.76 bitrate= 556.9kbits/s speed=0.0415x elapsed=0:01:30.77    \nframe=  231 fps=2.5 q=38.4 size=     256KiB time=00:00:03.80 bitrate= 552.0kbits/s speed=0.0416x elapsed=0:01:31.29    \nframe=  232 fps=2.5 q=36.2 size=     256KiB time=00:00:03.83 bitrate= 547.2kbits/s speed=0.0417x elapsed=0:01:31.83    \nframe=  234 fps=2.5 q=38.4 size=     256KiB time=00:00:03.86 bitrate= 542.5kbits/s speed=0.0419x elapsed=0:01:32.36    \nframe=  237 fps=2.6 q=36.1 size=     256KiB time=00:00:03.91 bitrate= 535.5kbits/s speed=0.0422x elapsed=0:01:32.89    \nframe=  237 fps=2.5 q=36.1 size=     256KiB time=00:00:03.91 bitrate= 535.5kbits/s speed=0.0419x elapsed=0:01:33.42    \nframe=  239 fps=2.5 q=38.4 size=     256KiB time=00:00:03.95 bitrate= 531.0kbits/s speed=0.042x elapsed=0:01:33.94    \nframe=  242 fps=2.6 q=36.1 size=     256KiB time=00:00:04.00 bitrate= 524.4kbits/s speed=0.0423x elapsed=0:01:34.46    \nframe=  243 fps=2.6 q=37.3 size=     256KiB time=00:00:04.01 bitrate= 522.2kbits/s speed=0.0423x elapsed=0:01:34.97    \nframe=  245 fps=2.6 q=36.2 size=     256KiB time=00:00:04.05 bitrate= 517.9kbits/s speed=0.0424x elapsed=0:01:35.49    \nframe=  246 fps=2.6 q=37.5 size=     256KiB time=00:00:04.06 bitrate= 515.8kbits/s speed=0.0424x elapsed=0:01:36.01    \nframe=  248 fps=2.6 q=38.5 size=     256KiB time=00:00:04.10 bitrate= 511.6kbits/s speed=0.0425x elapsed=0:01:36.52    \nframe=  249 fps=2.6 q=38.6 size=     256KiB time=00:00:04.11 bitrate= 509.5kbits/s speed=0.0424x elapsed=0:01:37.04    \nframe=  249 fps=2.6 q=38.6 size=     256KiB time=00:00:04.11 bitrate= 509.5kbits/s speed=0.0422x elapsed=0:01:37.56    \nframe=  252 fps=2.6 q=36.4 size=     256KiB time=00:00:04.16 bitrate= 503.4kbits/s speed=0.0425x elapsed=0:01:38.10    \nframe=  255 fps=2.6 q=37.5 size=     512KiB time=00:00:04.21 bitrate= 994.8kbits/s speed=0.0428x elapsed=0:01:38.61    \nframe=  257 fps=2.6 q=38.7 size=     512KiB time=00:00:04.25 bitrate= 987.0kbits/s speed=0.0429x elapsed=0:01:39.13    \nframe=  259 fps=2.6 q=35.6 size=     512KiB time=00:00:04.28 bitrate= 979.3kbits/s speed=0.043x elapsed=0:01:39.68    \nframe=  259 fps=2.6 q=35.6 size=     512KiB time=00:00:04.28 bitrate= 979.3kbits/s speed=0.0427x elapsed=0:01:40.20    \nframe=  260 fps=2.6 q=36.6 size=     512KiB time=00:00:04.30 bitrate= 975.5kbits/s speed=0.0427x elapsed=0:01:40.72    \nframe=  263 fps=2.6 q=37.7 size=     512KiB time=00:00:04.35 bitrate= 964.3kbits/s speed=0.043x elapsed=0:01:41.24    \nframe=  264 fps=2.6 q=35.5 size=     512KiB time=00:00:04.36 bitrate= 960.6kbits/s speed=0.0429x elapsed=0:01:41.77    \nframe=  265 fps=2.6 q=36.7 size=     512KiB time=00:00:04.38 bitrate= 957.0kbits/s speed=0.0429x elapsed=0:01:42.29    \nframe=  267 fps=2.6 q=37.8 size=     512KiB time=00:00:04.41 bitrate= 949.7kbits/s speed=0.043x elapsed=0:01:42.80    \nframe=  268 fps=2.6 q=35.5 size=     512KiB time=00:00:04.43 bitrate= 946.2kbits/s speed=0.0429x elapsed=0:01:43.34    \nframe=  269 fps=2.6 q=36.6 size=     512KiB time=00:00:04.45 bitrate= 942.6kbits/s speed=0.0428x elapsed=0:01:43.86    \nframe=  273 fps=2.6 q=35.5 size=     512KiB time=00:00:04.51 bitrate= 928.7kbits/s speed=0.0433x elapsed=0:01:44.38    \nframe=  274 fps=2.6 q=36.6 size=     512KiB time=00:00:04.53 bitrate= 925.3kbits/s speed=0.0432x elapsed=0:01:44.93    \nframe=  276 fps=2.6 q=37.7 size=     512KiB time=00:00:04.56 bitrate= 918.5kbits/s speed=0.0433x elapsed=0:01:45.44    \nframe=  278 fps=2.6 q=36.3 size=     512KiB time=00:00:04.60 bitrate= 911.9kbits/s speed=0.0434x elapsed=0:01:45.96    \nframe=  280 fps=2.6 q=38.7 size=     512KiB time=00:00:04.63 bitrate= 905.3kbits/s speed=0.0435x elapsed=0:01:46.47    \nframe=  282 fps=2.6 q=35.3 size=     512KiB time=00:00:04.66 bitrate= 898.9kbits/s speed=0.0436x elapsed=0:01:46.99    \nframe=  284 fps=2.6 q=37.6 size=     512KiB time=00:00:04.70 bitrate= 892.5kbits/s speed=0.0437x elapsed=0:01:47.52    \nframe=  286 fps=2.6 q=37.6 size=     512KiB time=00:00:04.73 bitrate= 886.2kbits/s speed=0.0438x elapsed=0:01:48.06    \nframe=  288 fps=2.7 q=36.5 size=     512KiB time=00:00:04.75 bitrate= 883.1kbits/s speed=0.0437x elapsed=0:01:48.62    \nframe=  288 fps=2.6 q=36.5 size=     512KiB time=00:00:04.76 bitrate= 880.0kbits/s speed=0.0437x elapsed=0:01:49.18    \nframe=  291 fps=2.7 q=37.5 size=     512KiB time=00:00:04.81 bitrate= 870.9kbits/s speed=0.0439x elapsed=0:01:49.70    \nframe=  292 fps=2.6 q=35.2 size=     512KiB time=00:00:04.83 bitrate= 867.9kbits/s speed=0.0439x elapsed=0:01:50.21    \nframe=  294 fps=2.7 q=37.5 size=     512KiB time=00:00:04.86 bitrate= 861.9kbits/s speed=0.0439x elapsed=0:01:50.74    \nframe=  296 fps=2.7 q=38.4 size=     512KiB time=00:00:04.90 bitrate= 856.1kbits/s speed=0.044x elapsed=0:01:51.25    \nframe=  297 fps=2.7 q=36.3 size=     512KiB time=00:00:04.91 bitrate= 853.2kbits/s speed=0.044x elapsed=0:01:51.80    \n[mp4 @ 00000163e7661100] Starting second pass: moving the moov atom to the beginning of the file\n[out#0/mp4 @ 00000163e7661000] video:605KiB audio:0KiB subtitle:0KiB other streams:0KiB global headers:2KiB muxing overhead: 1.131012%\nframe=  300 fps=2.7 q=38.5 Lsize=     612KiB time=00:00:04.96 bitrate=1009.6kbits/s speed=0.0443x elapsed=0:01:52.19    \nx265 [info]: frame I:      2, Avg QP:40.63  kb/s: 1066.08 \nx265 [info]: frame P:     71, Avg QP:35.95  kb/s: 1436.19 \nx265 [info]: frame B:    227, Avg QP:37.86  kb/s: 849.45  \nx265 [info]: Weighted P-Frames: Y:12.7% UV:12.7%\n\nencoded 300 frames in 112.10s (2.68 fps), 989.76 kb/s, Avg QP:37.43\n",
  "seconds": 112.41690850257874,
  "probe_out": {}
}